<svg width="500" height="500" viewBox="0 0 500 500" fill="none" xmlns="http://www.w3.org/2000/svg">
<path d="M246.176 207.371C244.751 205.312 242.455 205.312 241.189 207.371L197.101 272.148C195.676 274.207 193.381 274.207 192.114 272.148L169.002 238.255C167.577 236.196 165.282 236.196 164.015 238.255L103.543 327.026C102.118 329.085 103.068 330.748 105.442 330.748H152.617C155.071 330.748 159.187 330.748 161.641 330.748H227.496C229.949 330.748 234.065 330.748 236.519 330.748H277.916C276.728 324.096 276.016 317.286 276.016 310.317C276.016 294.242 279.499 278.958 285.514 265.1L246.176 207.371Z" fill="#E05E7A"/>
<path d="M129.663 225.822C145.494 225.822 158.475 212.994 158.475 196.998C158.475 181.16 145.652 168.252 129.663 168.252C113.833 168.252 100.852 181.081 100.852 196.998C100.931 212.835 113.753 225.822 129.663 225.822Z" fill="#E05E7A"/>
<path d="M287.256 359.335H59.6922V139.585H371.395V199.057C376.936 198.185 382.555 197.789 388.334 197.789C394.745 197.789 401.156 198.423 407.33 199.452V139.585C407.33 119.788 391.183 103.634 371.395 103.634H59.6922C39.9041 103.634 23.757 119.788 23.757 139.585V359.335C23.757 379.133 39.9041 395.287 59.6922 395.287H315.038C303.482 385.468 293.984 373.273 287.256 359.335Z" fill="#E05E7A"/>
<path d="M389.125 214.182C339.101 214.182 298.575 254.726 298.575 304.774C298.575 354.822 339.101 395.366 389.125 395.366C439.149 395.366 479.676 354.822 479.676 304.774C479.676 254.726 439.149 214.182 389.125 214.182ZM444.453 332.49C444.453 337.875 442.474 342.706 438.675 346.507C434.875 350.308 430.047 352.288 424.744 352.288H353.586C348.203 352.288 343.375 350.308 339.576 346.507C335.855 342.706 333.797 337.875 333.797 332.49V324.729C333.797 320.295 337.359 316.811 341.713 316.811H343.533C347.887 316.811 351.448 320.295 351.448 324.729V336.608H389.125L353.902 296.618C350.815 293.529 350.815 288.619 353.823 285.531L362.134 276.899C363.559 275.395 365.617 274.524 367.754 274.445C370.208 274.682 371.87 275.316 373.374 276.82L379.864 289.649L375.273 249.5C375.273 245.145 378.835 241.581 383.189 241.581H395.062C399.415 241.581 402.977 245.145 402.977 249.5L397.357 289.57L404.876 276.82C406.38 275.316 408.438 274.365 410.575 274.445C412.633 274.524 414.691 275.395 416.195 276.899L424.427 285.531C427.435 288.619 427.435 293.529 424.348 296.618L389.125 336.608H426.564V324.729C426.564 320.295 430.126 316.811 434.479 316.811H436.537C440.891 316.811 444.453 320.295 444.453 324.729V332.49Z" fill="#E05E7A"/>
</svg>
