<svg xmlns="http://www.w3.org/2000/svg">
    <symbol id='logo' viewBox="0 0 184 37" fill="none">
        <path
            d="M28.1066 13.0959C27.9281 12.8362 27.636 12.8362 27.4737 13.0959L21.9076 21.2747C21.7291 21.5343 21.437 21.5343 21.2747 21.2747L18.3537 16.9905C18.1752 16.7309 17.8831 16.7309 17.7208 16.9905L10.0775 28.2039C9.899 28.4636 10.0126 28.6745 10.3209 28.6745H16.2765C16.5848 28.6745 17.1041 28.6745 17.4125 28.6745H25.7373C26.0456 28.6745 26.5649 28.6745 26.8733 28.6745H32.0986C31.9526 27.8307 31.8552 26.9706 31.8552 26.0943C31.8552 24.0658 32.2933 22.1347 33.0561 20.3821L28.1066 13.0959Z"
            fill="white" />
        <path
            d="M13.388 15.4328C15.384 15.4328 17.023 13.81 17.023 11.7977C17.023 9.80173 15.4002 8.16272 13.388 8.16272C11.3919 8.16272 9.75293 9.7855 9.75293 11.7977C9.75293 13.7938 11.3757 15.4328 13.388 15.4328Z"
            fill="white" />
        <path
            d="M33.2994 32.2933H4.54378V4.54378H43.9286V12.0572C44.6264 11.9437 45.3404 11.895 46.0707 11.895C46.8821 11.895 47.6935 11.9761 48.4724 12.1059V4.54378C48.4724 2.0447 46.4277 0 43.9286 0H4.54378C2.0447 0 0 2.0447 0 4.54378V32.2933C0 34.7924 2.0447 36.8371 4.54378 36.8371H36.8046C35.3441 35.5875 34.1433 34.0459 33.2994 32.2933Z"
            fill="white" />
        <circle cx="46.168" cy="25.3966" r="11.4406" fill="white" />
        <path
            d="M46.2491 28.4798L42.2936 24.5243L43.4011 23.3772L45.458 25.4341V18.9866H47.0402V25.4341L49.0971 23.3772L50.2046 24.5243L46.2491 28.4798ZM41.5025 31.6442C41.0674 31.6442 40.695 31.4895 40.3855 31.1799C40.0759 30.8703 39.9208 30.4977 39.9203 30.062V27.6887H41.5025V30.062H50.9958V27.6887H52.578V30.062C52.578 30.4971 52.4232 30.8698 52.1136 31.1799C51.804 31.49 51.4314 31.6448 50.9958 31.6442H41.5025Z"
            fill="#7C6D5E" />
        <path
            d="M156.68 4.13818H162.963L170.308 14.1752L177.529 4.13818H183.772L173.531 18.4185L183.772 32.6989H177.529L170.308 22.6619L162.963 32.6989H156.68L167.084 18.4185L156.68 4.13818Z"
            fill="white" />
        <path
            d="M153.777 8.7487H139.212V16.0113H153.18V20.4586H139.212V28.0884H153.777V32.6989H133.703V4.13818H153.777V8.7487Z"
            fill="white" />
        <path
            d="M101.436 18.4185C101.436 16.2697 101.804 14.3112 102.538 12.5432C103.272 10.7479 104.292 9.21107 105.598 7.93264C106.904 6.62701 108.427 5.62058 110.168 4.91336C111.936 4.20615 113.84 3.85254 115.88 3.85254C118.818 3.85254 121.415 4.55976 123.673 5.97419C125.958 7.36143 127.671 9.36068 128.814 11.9719L124.203 13.3184C123.605 12.1759 122.857 11.2511 121.959 10.5439C121.089 9.83669 120.137 9.31988 119.103 8.99347C118.07 8.66706 117.022 8.50385 115.962 8.50385C114.221 8.50385 112.67 8.92547 111.31 9.76869C109.95 10.5847 108.889 11.7407 108.128 13.2368C107.393 14.7328 107.026 16.4601 107.026 18.4185C107.026 20.377 107.393 22.1042 108.128 23.6002C108.889 25.0691 109.95 26.2251 111.31 27.0683C112.67 27.9115 114.221 28.3332 115.962 28.3332C117.05 28.3332 118.124 28.17 119.185 27.8435C120.273 27.4899 121.279 26.9051 122.204 26.0891C123.129 25.2731 123.918 24.1851 124.571 22.825L129.099 24.0898C127.93 27.0547 126.189 29.2852 123.877 30.7812C121.565 32.2501 118.899 32.9845 115.88 32.9845C113.84 32.9845 111.936 32.6309 110.168 31.9236C108.427 31.2164 106.904 30.21 105.598 28.9044C104.292 27.5987 103.272 26.0619 102.538 24.2939C101.804 22.4986 101.436 20.5402 101.436 18.4185Z"
            fill="white" />
        <path d="M91.7468 4.13818H97.255V32.6989H91.7468V4.13818Z" fill="white" />
        <path
            d="M77.1961 17.1945C78.2842 17.1945 79.1818 17.0313 79.889 16.7049C80.5962 16.3513 81.113 15.8617 81.4394 15.2361C81.7931 14.5832 81.9699 13.8216 81.9699 12.9512C81.9699 11.6184 81.5754 10.5847 80.7866 9.85033C80.025 9.11591 78.8282 8.7487 77.1961 8.7487H71.1168V17.1945H77.1961ZM87.6004 12.9512C87.6004 14.012 87.41 15.0729 87.0292 16.1337C86.6484 17.1673 86.05 18.1193 85.2339 18.9898C84.4179 19.833 83.3571 20.513 82.0515 21.0298C80.773 21.5466 79.209 21.805 77.3593 21.805H71.1168V32.6989H65.6086V4.13818H77.3593C79.6714 4.13818 81.5754 4.54619 83.0715 5.36222C84.5947 6.15104 85.7235 7.22546 86.458 8.5855C87.2196 9.91833 87.6004 11.3736 87.6004 12.9512Z"
            fill="white" />
    </symbol>
    <symbol id='logo-red' viewBox="0 0 184 37" fill="none">
        <path
            d="M28.1066 13.0958C27.9281 12.8362 27.636 12.8362 27.4737 13.0958L21.9076 21.2746C21.7291 21.5343 21.437 21.5343 21.2747 21.2746L18.3537 16.9905C18.1752 16.7309 17.8831 16.7309 17.7208 16.9905L10.0775 28.2039C9.899 28.4635 10.0126 28.6745 10.3209 28.6745H16.2765C16.5848 28.6745 17.1041 28.6745 17.4125 28.6745H25.7373C26.0456 28.6745 26.5649 28.6745 26.8733 28.6745H32.0986C31.9526 27.8307 31.8552 26.9706 31.8552 26.0943C31.8552 24.0658 32.2933 22.1347 33.0561 20.3821L28.1066 13.0958Z"
            fill="#E4244D" />
        <path
            d="M13.388 15.4327C15.384 15.4327 17.023 13.81 17.023 11.7977C17.023 9.80169 15.4002 8.16269 13.388 8.16269C11.3919 8.16269 9.75293 9.78547 9.75293 11.7977C9.75293 13.7937 11.3757 15.4327 13.388 15.4327Z"
            fill="#E4244D" />
        <path
            d="M33.2994 32.2933H4.54378V4.54378H43.9286V12.0572C44.6264 11.9437 45.3404 11.895 46.0707 11.895C46.8821 11.895 47.6935 11.9761 48.4724 12.1059V4.54378C48.4724 2.0447 46.4277 0 43.9286 0H4.54378C2.0447 0 0 2.0447 0 4.54378V32.2933C0 34.7924 2.0447 36.8371 4.54378 36.8371H36.8046C35.3441 35.5875 34.1433 34.0459 33.2994 32.2933Z"
            fill="#E4244D" />
        <circle cx="46.168" cy="25.3966" r="11.4406" fill="#E4244D" />
        <path
            d="M46.2491 28.4799L42.2936 24.5244L43.4011 23.3773L45.458 25.4341V18.9866H47.0402V25.4341L49.0971 23.3773L50.2046 24.5244L46.2491 28.4799ZM41.5025 31.6443C41.0674 31.6443 40.695 31.4895 40.3855 31.1799C40.0759 30.8703 39.9208 30.4977 39.9203 30.0621V27.6888H41.5025V30.0621H50.9958V27.6888H52.578V30.0621C52.578 30.4972 52.4232 30.8698 52.1136 31.1799C51.804 31.49 51.4314 31.6448 50.9958 31.6443H41.5025Z"
            fill="white" />
        <path
            d="M156.68 4.13821H162.963L170.308 14.1753L177.529 4.13821H183.772L173.531 18.4186L183.772 32.6989H177.529L170.308 22.6619L162.963 32.6989H156.68L167.084 18.4186L156.68 4.13821Z"
            fill="#100104" />
        <path
            d="M153.777 8.74873H139.212V16.0113H153.18V20.4586H139.212V28.0884H153.777V32.6989H133.703V4.13821H153.777V8.74873Z"
            fill="#100104" />
        <path
            d="M101.436 18.4186C101.436 16.2697 101.804 14.3113 102.538 12.5432C103.272 10.748 104.292 9.21113 105.598 7.9327C106.904 6.62707 108.427 5.62064 110.168 4.91342C111.936 4.20621 113.84 3.8526 115.88 3.8526C118.818 3.8526 121.415 4.55982 123.673 5.97425C125.958 7.36149 127.671 9.36074 128.814 11.972L124.203 13.3184C123.605 12.176 122.857 11.2512 121.959 10.544C121.089 9.83675 120.137 9.31994 119.103 8.99353C118.07 8.66712 117.022 8.50392 115.962 8.50392C114.221 8.50392 112.67 8.92553 111.31 9.76875C109.95 10.5848 108.889 11.7408 108.128 13.2368C107.393 14.7329 107.026 16.4601 107.026 18.4186C107.026 20.377 107.393 22.1043 108.128 23.6003C108.889 25.0691 109.95 26.2252 111.31 27.0684C112.67 27.9116 114.221 28.3332 115.962 28.3332C117.05 28.3332 118.124 28.17 119.185 27.8436C120.273 27.49 121.279 26.9052 122.204 26.0892C123.129 25.2731 123.918 24.1851 124.571 22.8251L129.099 24.0899C127.93 27.0548 126.189 29.2852 123.877 30.7813C121.565 32.2501 118.899 32.9845 115.88 32.9845C113.84 32.9845 111.936 32.6309 110.168 31.9237C108.427 31.2165 106.904 30.2101 105.598 28.9044C104.292 27.5988 103.272 26.062 102.538 24.2939C101.804 22.4987 101.436 20.5402 101.436 18.4186Z"
            fill="#100104" />
        <path d="M91.7468 4.13821H97.255V32.6989H91.7468V4.13821Z" fill="#100104" />
        <path
            d="M77.1961 17.1945C78.2842 17.1945 79.1818 17.0313 79.889 16.7049C80.5962 16.3513 81.113 15.8617 81.4394 15.2361C81.7931 14.5833 81.9699 13.8217 81.9699 12.9512C81.9699 11.6184 81.5754 10.5848 80.7866 9.85036C80.025 9.11594 78.8282 8.74873 77.1961 8.74873H71.1168V17.1945H77.1961ZM87.6004 12.9512C87.6004 14.0121 87.41 15.0729 87.0292 16.1337C86.6484 17.1673 86.05 18.1194 85.2339 18.9898C84.4179 19.833 83.3571 20.513 82.0515 21.0298C80.773 21.5467 79.209 21.8051 77.3593 21.8051H71.1168V32.6989H65.6086V4.13821H77.3593C79.6714 4.13821 81.5754 4.54622 83.0715 5.36225C84.5947 6.15107 85.7235 7.22549 86.458 8.58553C87.2196 9.91836 87.6004 11.3736 87.6004 12.9512Z"
            fill="#100104" />
    </symbol>
    <symbol id='url' viewBox="0 0 17 14" fill='none'>
        <path
            d="M7.75514 10.9481C7.83228 11.0206 7.89348 11.1067 7.93524 11.2015C7.97701 11.2963 7.9985 11.3979 7.9985 11.5006C7.9985 11.6033 7.97701 11.7049 7.93524 11.7997C7.89348 11.8945 7.83228 11.9806 7.75514 12.0531L7.4021 12.3859C7.02734 12.7405 6.58173 13.0215 6.09103 13.2127C5.60033 13.404 5.07429 13.5016 4.54331 13.5C3.74369 13.5002 2.96196 13.2769 2.29701 12.8582C1.63207 12.4396 1.11379 11.8444 0.807755 11.148C0.501717 10.4516 0.42167 9.68531 0.577739 8.94603C0.733808 8.20675 1.11898 7.52771 1.68453 6.99483L4.08064 4.7361C4.5903 4.25574 5.22689 3.91252 5.92452 3.74197C6.62215 3.57142 7.35545 3.57975 8.04852 3.76608C8.74159 3.95242 9.36923 4.30999 9.86647 4.80178C10.3637 5.29358 10.7125 5.90171 10.8766 6.56324C10.9038 6.66382 10.9094 6.76851 10.8932 6.87116C10.8769 6.97382 10.839 7.07238 10.7818 7.16107C10.7246 7.24976 10.6492 7.32679 10.56 7.38766C10.4708 7.44853 10.3697 7.492 10.2624 7.51553C10.1552 7.53906 10.044 7.54218 9.93549 7.5247C9.82695 7.50722 9.72321 7.4695 9.63033 7.41374C9.53746 7.35798 9.45733 7.28531 9.39463 7.19999C9.33193 7.11466 9.28793 7.0184 9.26521 6.91684C9.16779 6.52634 8.96149 6.16746 8.66766 5.87729C8.37382 5.58712 8.0031 5.3762 7.59382 5.26632C7.18455 5.15645 6.75157 5.15162 6.33965 5.25232C5.92773 5.35303 5.55181 5.55562 5.25077 5.83914L2.85466 8.09788C2.52066 8.41247 2.29313 8.81337 2.20084 9.24987C2.10855 9.68637 2.15565 10.1389 2.33618 10.5501C2.51672 10.9614 2.82258 11.313 3.21508 11.5604C3.60758 11.8077 4.06909 11.9399 4.54125 11.94C4.85497 11.9409 5.16576 11.8831 5.45562 11.7699C5.74548 11.6568 6.00865 11.4906 6.2299 11.2809L6.58225 10.9481C6.65913 10.8753 6.75052 10.8175 6.85116 10.7781C6.9518 10.7387 7.05971 10.7184 7.16869 10.7184C7.27768 10.7184 7.38559 10.7387 7.48623 10.7781C7.58687 10.8175 7.67825 10.8753 7.75514 10.9481ZM15.3158 1.61613C14.5574 0.901471 13.529 0.5 12.4567 0.5C11.3844 0.5 10.3559 0.901471 9.59756 1.61613L9.24521 1.94828C9.08977 2.09481 9.00244 2.29355 9.00244 2.50077C9.00244 2.708 9.08977 2.90674 9.24521 3.05327C9.40065 3.1998 9.61148 3.28212 9.83131 3.28212C10.0511 3.28212 10.262 3.1998 10.4174 3.05327L10.7704 2.72047C11.2185 2.29812 11.8262 2.06084 12.4598 2.06084C13.0934 2.06084 13.7011 2.29812 14.1491 2.72047C14.5972 3.14282 14.8489 3.71566 14.8489 4.31296C14.8489 4.91026 14.5972 5.48309 14.1491 5.90544L11.7489 8.16092C11.5276 8.3706 11.2645 8.53681 10.9746 8.64995C10.6847 8.76308 10.374 8.82089 10.0602 8.82002C9.52205 8.81966 8.99978 8.64793 8.57812 8.33268C8.15646 8.01743 7.86014 7.57715 7.73721 7.08323C7.68747 6.88171 7.55484 6.70707 7.3685 6.59773C7.18216 6.48838 6.95738 6.4533 6.7436 6.50019C6.52982 6.54708 6.34455 6.6721 6.22856 6.84776C6.11257 7.02341 6.07535 7.23531 6.12509 7.43683C6.33271 8.27329 6.834 9.01911 7.54765 9.55334C8.26131 10.0876 9.14548 10.3789 10.0568 10.38H10.0602C10.5915 10.3814 11.1177 10.2835 11.6085 10.0919C12.0993 9.90032 12.545 9.61892 12.9197 9.26397L15.3158 7.00523C15.6912 6.65141 15.9891 6.23133 16.1922 5.769C16.3954 5.30666 16.5 4.81112 16.5 4.31068C16.5 3.81024 16.3954 3.3147 16.1922 2.85237C15.9891 2.39003 15.6912 1.96996 15.3158 1.61613Z"
            fill="#BFA080" />
            
    </symbol>

    <symbol id='download' viewBox="0 0 14 14" fill='none'>
        <path
            d="M7 10.5L2.625 6.125L3.85 4.85625L6.125 7.13125V0H7.875V7.13125L10.15 4.85625L11.375 6.125L7 10.5ZM1.75 14C1.26875 14 0.856917 13.8288 0.5145 13.4864C0.172083 13.144 0.000583333 12.7318 0 12.25V9.625H1.75V12.25H12.25V9.625H14V12.25C14 12.7312 13.8288 13.1434 13.4864 13.4864C13.144 13.8294 12.7318 14.0006 12.25 14H1.75Z"
            fill="#E05E7A" />
    </symbol>
    <symbol id='icon-1' viewBox="0 0 46 45" fill="none">
        <path d="M38 7V3C38 1.9 37.1 1 36 1H15C13.9 1 13 1.9 13 3V17" stroke="#EC95A5"
            stroke-width="2" stroke-miterlimit="10" stroke-linecap="round" stroke-linejoin="round" />
        <path d="M13 40V42C13 43.1 13.9 44 15 44H29.9H36C37.1 44 38 43.1 38 42V29" stroke="#EC95A5"
            stroke-width="2" stroke-miterlimit="10" stroke-linecap="round" stroke-linejoin="round" />
        <path d="M24 4H27" stroke="#EC95A5" stroke-width="2" stroke-miterlimit="10"
            stroke-linecap="round" stroke-linejoin="round" />
        <path d="M45 10H22V26H45V10Z" stroke="#EC95A5" stroke-width="2" stroke-miterlimit="10"
            stroke-linecap="round" stroke-linejoin="round" />
        <path d="M22 24L30 16L36.3 22.3" stroke="#EC95A5" stroke-width="2" stroke-miterlimit="10"
            stroke-linecap="round" stroke-linejoin="round" />
        <path d="M34 20L37 17L45 25" stroke="#EC95A5" stroke-width="2" stroke-miterlimit="10"
            stroke-linecap="round" stroke-linejoin="round" />
        <path d="M40 14H41" stroke="#EC95A5" stroke-width="2" stroke-miterlimit="10"
            stroke-linecap="round" stroke-linejoin="round" />
        <path d="M24 29V37H1V20H19" stroke="#EC95A5" stroke-width="2" stroke-miterlimit="10"
            stroke-linecap="round" stroke-linejoin="round" />
        <path d="M8 31.7L5 29L8 26.3" stroke="#EC95A5" stroke-width="2" stroke-miterlimit="10"
            stroke-linecap="round" stroke-linejoin="round" />
        <path d="M16 31.7L19 29L16 26.3" stroke="#EC95A5" stroke-width="2" stroke-miterlimit="10"
            stroke-linecap="round" stroke-linejoin="round" />
        <path d="M13.5 24.5L10.5 33.5" stroke="#EC95A5" stroke-width="2" stroke-miterlimit="10"
            stroke-linecap="round" stroke-linejoin="round" />
        <path d="M28 31H34" stroke="#EC95A5" stroke-width="2" stroke-miterlimit="10"
            stroke-linecap="round" stroke-linejoin="round" />
        <path d="M28 35H31" stroke="#EC95A5" stroke-width="2" stroke-miterlimit="10"
            stroke-linecap="round" stroke-linejoin="round" />
    </symbol>

    <symbol id='icon-2' viewBox="0 0 48 45" fill="none">
        <path d="M29 6V3C29 1.9 28.1 1 27 1H6C4.9 1 4 1.9 4 3V21" stroke="#EC95A5" stroke-width="2"
            stroke-miterlimit="10" stroke-linecap="round" stroke-linejoin="round" />
        <path d="M4 39V42C4 43.1 4.9 44 6 44H27C28.1 44 29 43.1 29 42V33" stroke="#EC95A5"
            stroke-width="2" stroke-miterlimit="10" stroke-linecap="round" stroke-linejoin="round" />
        <path d="M15 4H18" stroke="#EC95A5" stroke-width="2" stroke-miterlimit="10"
            stroke-linecap="round" stroke-linejoin="round" />
        <path d="M37 12V18H43C43 14.7 40.3 12 37 12Z" stroke="#EC95A5" stroke-width="2"
            stroke-miterlimit="10" stroke-linecap="round" stroke-linejoin="round" />
        <path d="M40.9 21C40.4 23.8 38 26 35 26C31.7 26 29 23.3 29 20C29 17 31.2 14.6 34 14.1"
            stroke="#EC95A5" stroke-width="2" stroke-miterlimit="10" stroke-linecap="round" />
        <path d="M19 15H25" stroke="#EC95A5" stroke-width="2" stroke-miterlimit="10"
            stroke-linecap="round" />
        <path d="M19 19H25" stroke="#EC95A5" stroke-width="2" stroke-miterlimit="10"
            stroke-linecap="round" />
        <path d="M19 23H22" stroke="#EC95A5" stroke-width="2" stroke-miterlimit="10"
            stroke-linecap="round" />
        <path d="M14 9V30H21L22 36L27 30H47V9H14Z" stroke="#EC95A5" stroke-width="2"
            stroke-miterlimit="10" stroke-linecap="round" stroke-linejoin="round" />
        <path d="M16 34V36H1V24H10" stroke="#EC95A5" stroke-width="2" stroke-miterlimit="10"
            stroke-linecap="round" stroke-linejoin="round" />
        <path d="M5 28H10" stroke="#EC95A5" stroke-width="2" stroke-miterlimit="10"
            stroke-linecap="round" stroke-linejoin="round" />
        <path d="M5 32H8" stroke="#EC95A5" stroke-width="2" stroke-miterlimit="10"
            stroke-linecap="round" stroke-linejoin="round" />
    </symbol>
    <symbol id='icon-3' viewBox="0 0 44 44" fill="none">
        <path
            d="M17.1 33V41C17.1 42.1 18 43 19.1 43H40.1C41.2 43 42.1 42.1 42.1 41V3C42.1 1.9 41.2 1 40.1 1H19.1C18 1 17.1 1.9 17.1 3V9"
            stroke="#EC95A5" stroke-width="2" stroke-miterlimit="10" stroke-linecap="round"
            stroke-linejoin="round" />
        <path d="M28.1 40H31.1" stroke="#EC95A5" stroke-width="2" stroke-miterlimit="10"
            stroke-linecap="round" stroke-linejoin="round" />
        <path d="M28.1 4H31.1" stroke="#EC95A5" stroke-width="2" stroke-miterlimit="10"
            stroke-linecap="round" stroke-linejoin="round" />
        <path
            d="M20.6 18.5L1.6 37.5C0.8 38.3 0.8 39.7 1.6 40.5C2.4 41.3 3.8 41.3 4.6 40.5L23.6 21.5C24.4 20.7 24.4 19.3 23.6 18.5C22.8 17.7 21.4 17.7 20.6 18.5Z"
            stroke="#EC95A5" stroke-width="2" stroke-miterlimit="10" stroke-linecap="round"
            stroke-linejoin="round" />
        <path d="M22.1 14V10" stroke="#EC95A5" stroke-width="2" stroke-miterlimit="10"
            stroke-linecap="round" stroke-linejoin="round" />
        <path d="M17.9 15.8L15 12.9" stroke="#EC95A5" stroke-width="2" stroke-miterlimit="10"
            stroke-linecap="round" stroke-linejoin="round" />
        <path d="M14.1 20H11.1" stroke="#EC95A5" stroke-width="2" stroke-miterlimit="10"
            stroke-linecap="round" stroke-linejoin="round" />
        <path d="M22.1 28V32" stroke="#EC95A5" stroke-width="2" stroke-miterlimit="10"
            stroke-linecap="round" stroke-linejoin="round" />
        <path d="M26.3 24.2L29.2 27.0999" stroke="#EC95A5" stroke-width="2" stroke-miterlimit="10"
            stroke-linecap="round" stroke-linejoin="round" />
        <path d="M28.1 20H32.1" stroke="#EC95A5" stroke-width="2" stroke-miterlimit="10"
            stroke-linecap="round" stroke-linejoin="round" />
        <path d="M26.3 15.8L29.2 12.9" stroke="#EC95A5" stroke-width="2" stroke-miterlimit="10"
            stroke-linecap="round" stroke-linejoin="round" />
    </symbol>

    <symbol id='icon-4' viewBox="0 0 37 44" fill="none">
        <path
            d="M11 37V41C11 42.1 11.9 43 13 43H34C35.1 43 36 42.1 36 41V3C36 1.9 35.1 1 34 1H13C11.9 1 11 1.9 11 3V8"
            stroke="#EC95A5" stroke-width="2" stroke-miterlimit="10" stroke-linecap="round"
            stroke-linejoin="round" />
        <path d="M22 40H25" stroke="#EC95A5" stroke-width="2" stroke-miterlimit="10"
            stroke-linecap="round" stroke-linejoin="round" />
        <path d="M22 4H25" stroke="#EC95A5" stroke-width="2" stroke-miterlimit="10"
            stroke-linecap="round" stroke-linejoin="round" />
        <path d="M14 21V12H8V21H3L11 29L19 21H14Z" stroke="#EC95A5" stroke-width="2"
            stroke-miterlimit="10" stroke-linecap="round" stroke-linejoin="round" />
        <path d="M1 29V33H21V29" stroke="#EC95A5" stroke-width="2" stroke-miterlimit="10"
            stroke-linecap="round" stroke-linejoin="round" />
    </symbol>

    <symbol id='warning' viewBox="0 0 21 20" fill="none">
        <path
            d="M10.5 2C14.911 2 18.5 5.589 18.5 10C18.5 14.411 14.911 18 10.5 18C6.089 18 2.5 14.411 2.5 10C2.5 5.589 6.089 2 10.5 2ZM10.5 0C4.977 0 0.5 4.477 0.5 10C0.5 15.523 4.977 20 10.5 20C16.023 20 20.5 15.523 20.5 10C20.5 4.477 16.023 0 10.5 0ZM11.5 13H9.5V15H11.5V13ZM9.5 11H11.5L12 5H9L9.5 11Z"
            fill="#EC95A5" />
    </symbol>
</svg>
    