<svg xmlns="http://www.w3.org/2000/svg">

    <symbol id='logo' viewBox="0 0 184 37" fill="none">
        <g clip-path="url(#clip0_684_1349)">
            <path
                d="M28.08 13.1801C27.9 12.9201 27.61 12.9201 27.45 13.1801L21.88 21.3601C21.7 21.6201 21.41 21.6201 21.25 21.3601L18.33 17.0801C18.15 16.8201 17.86 16.8201 17.7 17.0801L10.06 28.2901C9.88004 28.5501 10 28.7601 10.3 28.7601H16.26C16.57 28.7601 17.09 28.7601 17.4 28.7601H25.72C26.03 28.7601 26.55 28.7601 26.86 28.7601H32.09C31.94 27.9201 31.85 27.0601 31.85 26.1801C31.85 24.1501 32.29 22.2201 33.05 20.4701L28.08 13.1801Z"
                fill="#E05E7A" />
            <path
                d="M13.36 15.51C15.36 15.51 17 13.89 17 11.87C17 9.86999 15.38 8.23999 13.36 8.23999C11.36 8.23999 9.71997 9.85999 9.71997 11.87C9.72997 13.87 11.35 15.51 13.36 15.51Z"
                fill="#E05E7A" />
            <path
                d="M33.27 32.3701H4.51998V4.62008H43.9V12.1301C44.6 12.0201 45.31 11.9701 46.04 11.9701C46.85 11.9701 47.66 12.0501 48.44 12.1801V4.62008C48.44 2.12008 46.4 0.0800781 43.9 0.0800781H4.51998C2.01998 0.0800781 -0.0200195 2.12008 -0.0200195 4.62008V32.3701C-0.0200195 34.8701 2.01998 36.9101 4.51998 36.9101H36.78C35.32 35.6701 34.12 34.1301 33.27 32.3701Z"
                fill="#E05E7A" />
            <path
                d="M46.1399 14.04C39.8199 14.04 34.7 19.16 34.7 25.48C34.7 31.8 39.8199 36.92 46.1399 36.92C52.4599 36.92 57.58 31.8 57.58 25.48C57.58 19.16 52.4599 14.04 46.1399 14.04ZM53.13 28.98C53.13 29.66 52.88 30.27 52.4 30.75C51.92 31.23 51.3099 31.48 50.6399 31.48H41.65C40.97 31.48 40.36 31.23 39.88 30.75C39.41 30.27 39.15 29.66 39.15 28.98V28C39.15 27.44 39.6 27 40.15 27H40.38C40.93 27 41.38 27.44 41.38 28V29.5H46.1399L41.6899 24.45C41.2999 24.06 41.3 23.44 41.68 23.05L42.7299 21.96C42.91 21.77 43.1699 21.66 43.4399 21.65C43.7499 21.68 43.96 21.76 44.15 21.95L44.97 23.57L44.3899 18.5C44.3899 17.95 44.8399 17.5 45.3899 17.5H46.8899C47.4399 17.5 47.8899 17.95 47.8899 18.5L47.18 23.56L48.13 21.95C48.32 21.76 48.5799 21.64 48.8499 21.65C49.1099 21.66 49.37 21.77 49.56 21.96L50.5999 23.05C50.9799 23.44 50.9799 24.06 50.59 24.45L46.1399 29.5H50.8699V28C50.8699 27.44 51.32 27 51.8699 27H52.13C52.68 27 53.13 27.44 53.13 28V28.98Z"
                fill="#E05E7A" />
            <path
                d="M156.65 4.21997H162.93L170.28 14.26L177.5 4.21997H183.74L173.51 18.5L183.75 32.78H177.51L170.29 22.74L162.94 32.78H156.66L167.06 18.5L156.65 4.21997Z"
                fill="#E05E7A" />
            <path
                d="M153.75 8.82997H139.18V16.09H153.15V20.54H139.18V28.17H153.75V32.78H133.68V4.21997H153.75V8.82997Z"
                fill="#E05E7A" />
            <path
                d="M101.41 18.4999C101.41 16.3499 101.78 14.3899 102.51 12.6199C103.24 10.8199 104.26 9.28993 105.57 8.00993C106.88 6.69993 108.4 5.69993 110.14 4.98993C111.91 4.27993 113.81 3.92993 115.85 3.92993C118.79 3.92993 121.39 4.63993 123.64 6.04993C125.93 7.43993 127.64 9.43993 128.78 12.0499L124.17 13.3999C123.57 12.2599 122.82 11.3299 121.93 10.6299C121.06 9.91993 120.11 9.40993 119.07 9.07993C118.04 8.74993 116.99 8.58993 115.93 8.58993C114.19 8.58993 112.64 9.00993 111.28 9.84993C109.92 10.6699 108.86 11.8199 108.1 13.3199C107.36 14.8199 107 16.5399 107 18.4999C107 20.4599 107.37 22.1899 108.1 23.6799C108.86 25.1499 109.92 26.2999 111.28 27.1499C112.64 27.9999 114.19 28.4099 115.93 28.4099C117.02 28.4099 118.09 28.2499 119.15 27.9199C120.24 27.5699 121.24 26.9799 122.17 26.1699C123.09 25.3499 123.88 24.2699 124.54 22.9099L129.07 24.1699C127.9 27.1299 126.16 29.3699 123.85 30.8599C121.54 32.3299 118.87 33.0599 115.85 33.0599C113.81 33.0599 111.91 32.7099 110.14 31.9999C108.4 31.2899 106.88 30.2899 105.57 28.9799C104.26 27.6699 103.24 26.1399 102.51 24.3699C101.78 22.5799 101.41 20.6199 101.41 18.4999Z"
                fill="#E05E7A" />
            <path d="M91.72 4.21997H97.23V32.78H91.72V4.21997Z" fill="#E05E7A" />
            <path
                d="M77.17 17.27C78.26 17.27 79.16 17.11 79.86 16.78C80.57 16.43 81.08 15.94 81.41 15.31C81.76 14.66 81.94 13.9 81.94 13.03C81.94 11.7 81.55 10.66 80.76 9.92997C80 9.19997 78.8 8.82997 77.17 8.82997H71.09V17.28H77.17V17.27ZM87.58 13.03C87.58 14.09 87.39 15.15 87.01 16.21C86.63 17.24 86.03 18.2 85.21 19.07C84.39 19.91 83.33 20.59 82.03 21.11C80.75 21.63 79.19 21.89 77.34 21.89H71.1V32.78H65.59V4.21997H77.34C79.65 4.21997 81.56 4.62997 83.05 5.43997C84.57 6.22997 85.7 7.29997 86.44 8.65997C87.19 9.99997 87.58 11.45 87.58 13.03Z"
                fill="#E05E7A" />
        </g>
        <defs>
            <clipPath id="clip0_684_1349">
                <rect width="184" height="37" fill="white" />
            </clipPath>
        </defs>

    </symbol>
    <symbol id='logo-white' viewBox="0 0 120 24" fill="none">
        
        <path
            d="M18.3119 8.53221C18.1956 8.36304 18.0053 8.36304 17.8996 8.53221L14.2731 13.8608C14.1568 14.03 13.9665 14.03 13.8608 13.8608L11.9577 11.0697C11.8414 10.9005 11.6511 10.9005 11.5454 11.0697L6.56564 18.3754C6.44934 18.5445 6.52335 18.682 6.72423 18.682H10.6044C10.8053 18.682 11.1436 18.682 11.3445 18.682H16.7683C16.9692 18.682 17.3075 18.682 17.5084 18.682H20.9128C20.8176 18.1322 20.7542 17.5719 20.7542 17.0009C20.7542 15.6793 21.0397 14.4212 21.5366 13.2793L18.3119 8.53221Z"
            fill="white" />
        <path
            d="M8.72247 10.0547C10.0229 10.0547 11.0908 8.99747 11.0908 7.68646C11.0908 6.38602 10.0335 5.31818 8.72247 5.31818C7.42203 5.31818 6.35419 6.37544 6.35419 7.68646C6.35419 8.9869 7.41146 10.0547 8.72247 10.0547Z"
            fill="white" />
        <path
            d="M21.6952 21.0396H2.96035V2.96035H28.6203V7.85551C29.0749 7.7815 29.5401 7.74978 30.0159 7.74978C30.5445 7.74978 31.0731 7.80264 31.5806 7.88722V2.96035C31.5806 1.33216 30.2485 0 28.6203 0H2.96035C1.33216 0 0 1.33216 0 2.96035V21.0396C0 22.6678 1.33216 24 2.96035 24H23.9789C23.0273 23.1859 22.2449 22.1815 21.6952 21.0396Z"
            fill="white" />
        <circle cx="30.0792" cy="16.5463" r="7.45374" fill="white" />
        <path
            d="M30.1321 18.5551L27.555 15.978L28.2766 15.2306L29.6167 16.5707V12.3701H30.6476V16.5707L31.9876 15.2306L32.7092 15.978L30.1321 18.5551ZM27.0396 20.6168C26.7561 20.6168 26.5136 20.5159 26.3119 20.3142C26.1102 20.1125 26.0091 19.8697 26.0088 19.5859V18.0397H27.0396V19.5859H33.2246V18.0397H34.2555V19.5859C34.2555 19.8694 34.1546 20.1122 33.9529 20.3142C33.7512 20.5162 33.5085 20.6171 33.2246 20.6168H27.0396Z"
            fill="#7C6D5E" />
        <path
            d="M102.08 2.69611H106.173L110.958 9.23542L115.663 2.69611H119.731L113.058 12L119.731 21.3039H115.663L110.958 14.7646L106.173 21.3039H102.08L108.858 12L102.08 2.69611Z"
            fill="white" />
        <path
            d="M100.189 5.69994H90.6987V10.4316H99.7995V13.3291H90.6987V18.3001H100.189V21.3039H87.11V2.69611H100.189V5.69994Z"
            fill="white" />
        <path
            d="M66.0876 12C66.0876 10.6 66.3268 9.32401 66.8053 8.1721C67.2838 7.00247 67.9484 6.00119 68.799 5.16827C69.6497 4.31762 70.6421 3.66192 71.7763 3.20116C72.9282 2.74039 74.1687 2.51001 75.4978 2.51001C77.4118 2.51001 79.1042 2.97077 80.5751 3.8923C82.0637 4.79611 83.1802 6.09866 83.9245 7.79994L80.9207 8.67717C80.5308 7.93286 80.0434 7.33032 79.4586 6.86955C78.8915 6.40879 78.2713 6.07208 77.5978 5.85941C76.9244 5.64675 76.2421 5.54042 75.551 5.54042C74.4168 5.54042 73.4067 5.81511 72.5206 6.36448C71.6345 6.89614 70.9433 7.64931 70.4471 8.624C69.9686 9.5987 69.7294 10.724 69.7294 12C69.7294 13.276 69.9686 14.4013 70.4471 15.376C70.9433 16.333 71.6345 17.0861 72.5206 17.6355C73.4067 18.1849 74.4168 18.4596 75.551 18.4596C76.2599 18.4596 76.9599 18.3532 77.651 18.1406C78.3599 17.9102 79.0156 17.5292 79.6181 16.9975C80.2207 16.4659 80.7346 15.757 81.1599 14.8709L84.1106 15.695C83.3485 17.6266 82.2143 19.0798 80.708 20.0545C79.2017 21.0115 77.4649 21.49 75.4978 21.49C74.1687 21.49 72.9282 21.2596 71.7763 20.7988C70.6421 20.3381 69.6497 19.6824 68.799 18.8317C67.9484 17.9811 67.2838 16.9798 66.8053 15.8279C66.3268 14.6582 66.0876 13.3823 66.0876 12Z"
            fill="white" />
        <path d="M59.7747 2.69611H63.3633V21.3039H59.7747V2.69611Z" fill="white" />
        <path
            d="M50.2946 11.2025C51.0035 11.2025 51.5883 11.0962 52.0491 10.8835C52.5098 10.6532 52.8466 10.3342 53.0592 9.92657C53.2896 9.50125 53.4048 9.00504 53.4048 8.43794C53.4048 7.56958 53.1478 6.89615 52.6339 6.41767C52.1377 5.93918 51.3579 5.69994 50.2946 5.69994H46.3338V11.2025H50.2946ZM57.0732 8.43794C57.0732 9.12909 56.9491 9.82024 56.701 10.5114C56.4529 11.1848 56.0631 11.8051 55.5314 12.3722C54.9998 12.9215 54.3086 13.3646 53.458 13.7013C52.625 14.038 51.606 14.2064 50.401 14.2064H46.3338V21.3039H42.7452V2.69611H50.401C51.9073 2.69611 53.1478 2.96193 54.1225 3.49358C55.1149 4.00751 55.8504 4.70752 56.3289 5.59361C56.8251 6.46197 57.0732 7.41008 57.0732 8.43794Z"
            fill="white" />

    </symbol>
    <symbol id='url' viewBox="0 0 17 14">
        <path
            d="M7.75514 10.9481C7.83228 11.0206 7.89348 11.1067 7.93524 11.2015C7.97701 11.2963 7.9985 11.3979 7.9985 11.5006C7.9985 11.6033 7.97701 11.7049 7.93524 11.7997C7.89348 11.8945 7.83228 11.9806 7.75514 12.0531L7.4021 12.3859C7.02734 12.7405 6.58173 13.0215 6.09103 13.2127C5.60033 13.404 5.07429 13.5016 4.54331 13.5C3.74369 13.5002 2.96196 13.2769 2.29701 12.8582C1.63207 12.4396 1.11379 11.8444 0.807755 11.148C0.501717 10.4516 0.42167 9.68531 0.577739 8.94603C0.733808 8.20675 1.11898 7.52771 1.68453 6.99483L4.08064 4.7361C4.5903 4.25574 5.22689 3.91252 5.92452 3.74197C6.62215 3.57142 7.35545 3.57975 8.04852 3.76608C8.74159 3.95242 9.36923 4.30999 9.86647 4.80178C10.3637 5.29358 10.7125 5.90171 10.8766 6.56324C10.9038 6.66382 10.9094 6.76851 10.8932 6.87116C10.8769 6.97382 10.839 7.07238 10.7818 7.16107C10.7246 7.24976 10.6492 7.32679 10.56 7.38766C10.4708 7.44853 10.3697 7.492 10.2624 7.51553C10.1552 7.53906 10.044 7.54218 9.93549 7.5247C9.82695 7.50722 9.72321 7.4695 9.63033 7.41374C9.53746 7.35798 9.45733 7.28531 9.39463 7.19999C9.33193 7.11466 9.28793 7.0184 9.26521 6.91684C9.16779 6.52634 8.96149 6.16746 8.66766 5.87729C8.37382 5.58712 8.0031 5.3762 7.59382 5.26632C7.18455 5.15645 6.75157 5.15162 6.33965 5.25232C5.92773 5.35303 5.55181 5.55562 5.25077 5.83914L2.85466 8.09788C2.52066 8.41247 2.29313 8.81337 2.20084 9.24987C2.10855 9.68637 2.15565 10.1389 2.33618 10.5501C2.51672 10.9614 2.82258 11.313 3.21508 11.5604C3.60758 11.8077 4.06909 11.9399 4.54125 11.94C4.85497 11.9409 5.16576 11.8831 5.45562 11.7699C5.74548 11.6568 6.00865 11.4906 6.2299 11.2809L6.58225 10.9481C6.65913 10.8753 6.75052 10.8175 6.85116 10.7781C6.9518 10.7387 7.05971 10.7184 7.16869 10.7184C7.27768 10.7184 7.38559 10.7387 7.48623 10.7781C7.58687 10.8175 7.67825 10.8753 7.75514 10.9481ZM15.3158 1.61613C14.5574 0.901471 13.529 0.5 12.4567 0.5C11.3844 0.5 10.3559 0.901471 9.59756 1.61613L9.24521 1.94828C9.08977 2.09481 9.00244 2.29355 9.00244 2.50077C9.00244 2.708 9.08977 2.90674 9.24521 3.05327C9.40065 3.1998 9.61148 3.28212 9.83131 3.28212C10.0511 3.28212 10.262 3.1998 10.4174 3.05327L10.7704 2.72047C11.2185 2.29812 11.8262 2.06084 12.4598 2.06084C13.0934 2.06084 13.7011 2.29812 14.1491 2.72047C14.5972 3.14282 14.8489 3.71566 14.8489 4.31296C14.8489 4.91026 14.5972 5.48309 14.1491 5.90544L11.7489 8.16092C11.5276 8.3706 11.2645 8.53681 10.9746 8.64995C10.6847 8.76308 10.374 8.82089 10.0602 8.82002C9.52205 8.81966 8.99978 8.64793 8.57812 8.33268C8.15646 8.01743 7.86014 7.57715 7.73721 7.08323C7.68747 6.88171 7.55484 6.70707 7.3685 6.59773C7.18216 6.48838 6.95738 6.4533 6.7436 6.50019C6.52982 6.54708 6.34455 6.6721 6.22856 6.84776C6.11257 7.02341 6.07535 7.23531 6.12509 7.43683C6.33271 8.27329 6.834 9.01911 7.54765 9.55334C8.26131 10.0876 9.14548 10.3789 10.0568 10.38H10.0602C10.5915 10.3814 11.1177 10.2835 11.6085 10.0919C12.0993 9.90032 12.545 9.61892 12.9197 9.26397L15.3158 7.00523C15.6912 6.65141 15.9891 6.23133 16.1922 5.769C16.3954 5.30666 16.5 4.81112 16.5 4.31068C16.5 3.81024 16.3954 3.3147 16.1922 2.85237C15.9891 2.39003 15.6912 1.96996 15.3158 1.61613Z"
        />

    </symbol>

    <symbol id='download' viewBox="0 0 14 14">
        <path
            d="M7 10.5L2.625 6.125L3.85 4.85625L6.125 7.13125V0H7.875V7.13125L10.15 4.85625L11.375 6.125L7 10.5ZM1.75 14C1.26875 14 0.856917 13.8288 0.5145 13.4864C0.172083 13.144 0.000583333 12.7318 0 12.25V9.625H1.75V12.25H12.25V9.625H14V12.25C14 12.7312 13.8288 13.1434 13.4864 13.4864C13.144 13.8294 12.7318 14.0006 12.25 14H1.75Z"
        />
    </symbol>
    <symbol id='icon-1' viewBox="0 0 46 45" fill="none">
        <path d="M38 7V3C38 1.9 37.1 1 36 1H15C13.9 1 13 1.9 13 3V17" stroke="#EC95A5"
            stroke-width="2" stroke-miterlimit="10" stroke-linecap="round" stroke-linejoin="round" />
        <path d="M13 40V42C13 43.1 13.9 44 15 44H29.9H36C37.1 44 38 43.1 38 42V29" stroke="#EC95A5"
            stroke-width="2" stroke-miterlimit="10" stroke-linecap="round" stroke-linejoin="round" />
        <path d="M24 4H27" stroke="#EC95A5" stroke-width="2" stroke-miterlimit="10"
            stroke-linecap="round" stroke-linejoin="round" />
        <path d="M45 10H22V26H45V10Z" stroke="#EC95A5" stroke-width="2" stroke-miterlimit="10"
            stroke-linecap="round" stroke-linejoin="round" />
        <path d="M22 24L30 16L36.3 22.3" stroke="#EC95A5" stroke-width="2" stroke-miterlimit="10"
            stroke-linecap="round" stroke-linejoin="round" />
        <path d="M34 20L37 17L45 25" stroke="#EC95A5" stroke-width="2" stroke-miterlimit="10"
            stroke-linecap="round" stroke-linejoin="round" />
        <path d="M40 14H41" stroke="#EC95A5" stroke-width="2" stroke-miterlimit="10"
            stroke-linecap="round" stroke-linejoin="round" />
        <path d="M24 29V37H1V20H19" stroke="#EC95A5" stroke-width="2" stroke-miterlimit="10"
            stroke-linecap="round" stroke-linejoin="round" />
        <path d="M8 31.7L5 29L8 26.3" stroke="#EC95A5" stroke-width="2" stroke-miterlimit="10"
            stroke-linecap="round" stroke-linejoin="round" />
        <path d="M16 31.7L19 29L16 26.3" stroke="#EC95A5" stroke-width="2" stroke-miterlimit="10"
            stroke-linecap="round" stroke-linejoin="round" />
        <path d="M13.5 24.5L10.5 33.5" stroke="#EC95A5" stroke-width="2" stroke-miterlimit="10"
            stroke-linecap="round" stroke-linejoin="round" />
        <path d="M28 31H34" stroke="#EC95A5" stroke-width="2" stroke-miterlimit="10"
            stroke-linecap="round" stroke-linejoin="round" />
        <path d="M28 35H31" stroke="#EC95A5" stroke-width="2" stroke-miterlimit="10"
            stroke-linecap="round" stroke-linejoin="round" />
    </symbol>

    <symbol id='icon-2' viewBox="0 0 48 45" fill="none">
        <path d="M29 6V3C29 1.9 28.1 1 27 1H6C4.9 1 4 1.9 4 3V21" stroke="#EC95A5" stroke-width="2"
            stroke-miterlimit="10" stroke-linecap="round" stroke-linejoin="round" />
        <path d="M4 39V42C4 43.1 4.9 44 6 44H27C28.1 44 29 43.1 29 42V33" stroke="#EC95A5"
            stroke-width="2" stroke-miterlimit="10" stroke-linecap="round" stroke-linejoin="round" />
        <path d="M15 4H18" stroke="#EC95A5" stroke-width="2" stroke-miterlimit="10"
            stroke-linecap="round" stroke-linejoin="round" />
        <path d="M37 12V18H43C43 14.7 40.3 12 37 12Z" stroke="#EC95A5" stroke-width="2"
            stroke-miterlimit="10" stroke-linecap="round" stroke-linejoin="round" />
        <path d="M40.9 21C40.4 23.8 38 26 35 26C31.7 26 29 23.3 29 20C29 17 31.2 14.6 34 14.1"
            stroke="#EC95A5" stroke-width="2" stroke-miterlimit="10" stroke-linecap="round" />
        <path d="M19 15H25" stroke="#EC95A5" stroke-width="2" stroke-miterlimit="10"
            stroke-linecap="round" />
        <path d="M19 19H25" stroke="#EC95A5" stroke-width="2" stroke-miterlimit="10"
            stroke-linecap="round" />
        <path d="M19 23H22" stroke="#EC95A5" stroke-width="2" stroke-miterlimit="10"
            stroke-linecap="round" />
        <path d="M14 9V30H21L22 36L27 30H47V9H14Z" stroke="#EC95A5" stroke-width="2"
            stroke-miterlimit="10" stroke-linecap="round" stroke-linejoin="round" />
        <path d="M16 34V36H1V24H10" stroke="#EC95A5" stroke-width="2" stroke-miterlimit="10"
            stroke-linecap="round" stroke-linejoin="round" />
        <path d="M5 28H10" stroke="#EC95A5" stroke-width="2" stroke-miterlimit="10"
            stroke-linecap="round" stroke-linejoin="round" />
        <path d="M5 32H8" stroke="#EC95A5" stroke-width="2" stroke-miterlimit="10"
            stroke-linecap="round" stroke-linejoin="round" />
    </symbol>
    <symbol id='icon-3' viewBox="0 0 44 44" fill="none">
        <path
            d="M17.1 33V41C17.1 42.1 18 43 19.1 43H40.1C41.2 43 42.1 42.1 42.1 41V3C42.1 1.9 41.2 1 40.1 1H19.1C18 1 17.1 1.9 17.1 3V9"
            stroke="#EC95A5" stroke-width="2" stroke-miterlimit="10" stroke-linecap="round"
            stroke-linejoin="round" />
        <path d="M28.1 40H31.1" stroke="#EC95A5" stroke-width="2" stroke-miterlimit="10"
            stroke-linecap="round" stroke-linejoin="round" />
        <path d="M28.1 4H31.1" stroke="#EC95A5" stroke-width="2" stroke-miterlimit="10"
            stroke-linecap="round" stroke-linejoin="round" />
        <path
            d="M20.6 18.5L1.6 37.5C0.8 38.3 0.8 39.7 1.6 40.5C2.4 41.3 3.8 41.3 4.6 40.5L23.6 21.5C24.4 20.7 24.4 19.3 23.6 18.5C22.8 17.7 21.4 17.7 20.6 18.5Z"
            stroke="#EC95A5" stroke-width="2" stroke-miterlimit="10" stroke-linecap="round"
            stroke-linejoin="round" />
        <path d="M22.1 14V10" stroke="#EC95A5" stroke-width="2" stroke-miterlimit="10"
            stroke-linecap="round" stroke-linejoin="round" />
        <path d="M17.9 15.8L15 12.9" stroke="#EC95A5" stroke-width="2" stroke-miterlimit="10"
            stroke-linecap="round" stroke-linejoin="round" />
        <path d="M14.1 20H11.1" stroke="#EC95A5" stroke-width="2" stroke-miterlimit="10"
            stroke-linecap="round" stroke-linejoin="round" />
        <path d="M22.1 28V32" stroke="#EC95A5" stroke-width="2" stroke-miterlimit="10"
            stroke-linecap="round" stroke-linejoin="round" />
        <path d="M26.3 24.2L29.2 27.0999" stroke="#EC95A5" stroke-width="2" stroke-miterlimit="10"
            stroke-linecap="round" stroke-linejoin="round" />
        <path d="M28.1 20H32.1" stroke="#EC95A5" stroke-width="2" stroke-miterlimit="10"
            stroke-linecap="round" stroke-linejoin="round" />
        <path d="M26.3 15.8L29.2 12.9" stroke="#EC95A5" stroke-width="2" stroke-miterlimit="10"
            stroke-linecap="round" stroke-linejoin="round" />
    </symbol>

    <symbol id='icon-4' viewBox="0 0 37 44" fill="none">
        <path
            d="M11 37V41C11 42.1 11.9 43 13 43H34C35.1 43 36 42.1 36 41V3C36 1.9 35.1 1 34 1H13C11.9 1 11 1.9 11 3V8"
            stroke="#EC95A5" stroke-width="2" stroke-miterlimit="10" stroke-linecap="round"
            stroke-linejoin="round" />
        <path d="M22 40H25" stroke="#EC95A5" stroke-width="2" stroke-miterlimit="10"
            stroke-linecap="round" stroke-linejoin="round" />
        <path d="M22 4H25" stroke="#EC95A5" stroke-width="2" stroke-miterlimit="10"
            stroke-linecap="round" stroke-linejoin="round" />
        <path d="M14 21V12H8V21H3L11 29L19 21H14Z" stroke="#EC95A5" stroke-width="2"
            stroke-miterlimit="10" stroke-linecap="round" stroke-linejoin="round" />
        <path d="M1 29V33H21V29" stroke="#EC95A5" stroke-width="2" stroke-miterlimit="10"
            stroke-linecap="round" stroke-linejoin="round" />
    </symbol>

    <symbol id='warning' viewBox="0 0 21 20" fill="none">
        <path
            d="M10.5 2C14.911 2 18.5 5.589 18.5 10C18.5 14.411 14.911 18 10.5 18C6.089 18 2.5 14.411 2.5 10C2.5 5.589 6.089 2 10.5 2ZM10.5 0C4.977 0 0.5 4.477 0.5 10C0.5 15.523 4.977 20 10.5 20C16.023 20 20.5 15.523 20.5 10C20.5 4.477 16.023 0 10.5 0ZM11.5 13H9.5V15H11.5V13ZM9.5 11H11.5L12 5H9L9.5 11Z"
            fill="#EC95A5" />
    </symbol>
    <symbol id='arrow-left' viewBox="0 0 8 12" fill="none"
        xmlns="http://www.w3.org/2000/svg">
        <path fill-rule="evenodd" clip-rule="evenodd"
            d="M7.12132 0.292893C7.51184 0.683417 7.51184 1.31658 7.12132 1.70711L2.82843 6L7.12132 10.2929C7.51184 10.6834 7.51184 11.3166 7.12132 11.7071C6.7308 12.0976 6.09763 12.0976 5.70711 11.7071L0 6L5.70711 0.292893C6.09763 -0.0976311 6.7308 -0.0976311 7.12132 0.292893Z"
            fill="#6A6A6A" />
    </symbol>
    <symbol id='arrow-next' viewBox="0 0 8 12" fill="none">
        <path fill-rule="evenodd" clip-rule="evenodd"
            d="M0.87868 11.7071C0.488155 11.3166 0.488155 10.6834 0.87868 10.2929L5.17157 6L0.878681 1.70711C0.488156 1.31658 0.488156 0.683417 0.878681 0.292893C1.2692 -0.097632 1.90237 -0.097632 2.29289 0.292893L8 6L2.29289 11.7071C1.90237 12.0976 1.2692 12.0976 0.87868 11.7071Z"
            fill="#6A6A6A" />
    </symbol>
    <symbol id='select-icon' viewBox="0 0 10 16" fill="none">
        <path fill-rule="evenodd" clip-rule="evenodd"
            d="M9.76365 5.74639C9.44853 6.06151 8.93761 6.06151 8.62248 5.74639L5.15841 2.28232L1.69434 5.74639C1.37921 6.06151 0.868293 6.06151 0.553166 5.74639C0.238039 5.43126 0.238039 4.92034 0.553166 4.60521L5.15841 -3.07292e-05L9.76366 4.60521C10.0788 4.92034 10.0788 5.43126 9.76365 5.74639Z"
            fill="#B9B9B9" />
        <path fill-rule="evenodd" clip-rule="evenodd"
            d="M0.553117 10.2537C0.868243 9.93858 1.37916 9.93858 1.69429 10.2537L5.15836 13.7178L8.62243 10.2537C8.93756 9.93858 9.44848 9.93858 9.76361 10.2537C10.0787 10.5688 10.0787 11.0798 9.76361 11.3949L5.15836 16.0001L0.553117 11.3949C0.237991 11.0798 0.237991 10.5688 0.553117 10.2537Z"
            fill="#B9B9B9" />
    </symbol>

    <symbol id='select-check' viewBox="0 0 14 14" fill="none">
        <path
            d="M5.88191 9.74524L3.18182 7.04451L4.08164 6.14469L5.88191 7.94433L9.48119 4.34442L10.3816 5.24488L5.88191 9.74524Z"
            fill="#6A6A6A" />
        <path fill-rule="evenodd" clip-rule="evenodd"
            d="M0 7C0 3.13409 3.13409 0 7 0C10.8659 0 14 3.13409 14 7C14 10.8659 10.8659 14 7 14C3.13409 14 0 10.8659 0 7ZM7 12.7273C6.24788 12.7273 5.50313 12.5791 4.80827 12.2913C4.1134 12.0035 3.48203 11.5816 2.95021 11.0498C2.41838 10.518 1.99651 9.8866 1.70869 9.19173C1.42087 8.49687 1.27273 7.75212 1.27273 7C1.27273 6.24788 1.42087 5.50313 1.70869 4.80827C1.99651 4.1134 2.41838 3.48203 2.95021 2.95021C3.48203 2.41838 4.1134 1.99651 4.80827 1.70869C5.50313 1.42087 6.24788 1.27273 7 1.27273C8.51897 1.27273 9.97572 1.87613 11.0498 2.95021C12.1239 4.02428 12.7273 5.48103 12.7273 7C12.7273 8.51897 12.1239 9.97572 11.0498 11.0498C9.97572 12.1239 8.51897 12.7273 7 12.7273Z"
            fill="#6A6A6A" />
    </symbol>
    <symbol id='select-cancel' viewBox="0 0 16 16" fill="none">
        <path
            d="M14.8047 15.6952L10.5381 11.4285H5.07142V5.96188L0.804749 1.69521L1.87142 0.609497L15.8905 14.6285L14.8047 15.6952ZM6.59522 9.90474H9.01427L6.59522 7.48569V9.90474ZM12.6905 9.27616L11.1667 7.75235V5.33331H8.74761L7.2238 3.8095H12.6905V9.27616ZM3.54761 12.9524V14.4762C3.12856 14.4762 2.76996 14.3271 2.4718 14.0289C2.17364 13.7308 2.0243 13.3719 2.0238 12.9524H3.54761ZM2.0238 11.4285V9.90474H3.54761V11.4285H2.0238ZM2.0238 8.38093V6.85712H3.54761V8.38093H2.0238ZM2.0238 5.33331V3.8095H3.54761V5.33331H2.0238ZM5.07142 14.4762V12.9524H6.59522V14.4762H5.07142ZM5.07142 2.28569V0.761878H6.59522V2.28569H5.07142ZM8.11903 14.4762V12.9524H9.64284V14.4762H8.11903ZM8.11903 2.28569V0.761878H9.64284V2.28569H8.11903ZM11.1667 14.4762V12.9524H12.6905V14.4762H11.1667ZM11.1667 2.28569V0.761878H12.6905V2.28569H11.1667ZM14.2143 11.4285V9.90474H15.7381V11.4285H14.2143ZM14.2143 8.38093V6.85712H15.7381V8.38093H14.2143ZM14.2143 5.33331V3.8095H15.7381V5.33331H14.2143ZM14.2143 2.28569V0.761878C14.6333 0.761878 14.9922 0.911211 15.2908 1.20988C15.5895 1.50854 15.7386 1.86715 15.7381 2.28569H14.2143Z"
            fill="#C09E7B" />
    </symbol>
    <symbol id='check-icon' viewBox="0 0 38 38" fill="none">
        <circle cx="19" cy="19" r="17.6429" fill="#B8FFD9" />
        <path
            d="M15.9652 26.4509L8.63635 19.1203L11.0787 16.678L15.9652 21.5627L25.7346 11.7915L28.1787 14.2356L15.9652 26.4509Z"
            fill="#4CC082" />
        <path fill-rule="evenodd" clip-rule="evenodd"
            d="M0 19C0 8.50682 8.50682 0 19 0C29.4932 0 38 8.50682 38 19C38 29.4932 29.4932 38 19 38C8.50682 38 0 29.4932 0 19ZM19 34.5455C16.9585 34.5455 14.9371 34.1434 13.051 33.3621C11.165 32.5809 9.45123 31.4358 8.0077 29.9923C6.56417 28.5488 5.41911 26.8351 4.63787 24.949C3.85664 23.0629 3.45455 21.0415 3.45455 19C3.45455 16.9585 3.85664 14.9371 4.63787 13.051C5.41911 11.165 6.56417 9.45123 8.0077 8.0077C9.45123 6.56417 11.165 5.4191 13.051 4.63787C14.9371 3.85664 16.9585 3.45455 19 3.45455C23.1229 3.45455 27.077 5.09237 29.9923 8.0077C32.9076 10.923 34.5455 14.8771 34.5455 19C34.5455 23.1229 32.9076 27.077 29.9923 29.9923C27.077 32.9076 23.1229 34.5455 19 34.5455Z"
            fill="#4CC082" />
    </symbol>
    <symbol id='close' viewBox="0 0 14 14" fill="none">
        <path fill-rule="evenodd" clip-rule="evenodd"
            d="M13.7302 0.277061C14.0899 0.646476 14.0899 1.24542 13.7302 1.61483L8.30256 7.18919L13.3618 12.3852C13.7215 12.7546 13.7215 13.3535 13.3618 13.7229C13.0021 14.0924 12.4189 14.0924 12.0592 13.7229L7 8.52696L1.94076 13.7229C1.58106 14.0924 0.997885 14.0924 0.638191 13.7229C0.278498 13.3535 0.278498 12.7546 0.638191 12.3852L5.69743 7.18919L0.26977 1.61483C-0.0899234 1.24542 -0.0899234 0.646477 0.26977 0.277062C0.629463 -0.0923524 1.21264 -0.0923524 1.57234 0.277062L7 5.85142L12.4277 0.277061C12.7874 -0.0923537 13.3705 -0.0923537 13.7302 0.277061Z"
            fill="#EC95A5" />
    </symbol>
    <symbol id='question' viewBox="0 0 32 32" fill="none">
        <g clip-path="url(#clip0_685_1499)">
            <path
                d="M16 32C11.7565 32 7.68687 30.3143 4.68629 27.3137C1.68571 24.3131 0 20.2435 0 16C0 11.7565 1.68571 7.68687 4.68629 4.68629C7.68687 1.68571 11.7565 0 16 0C20.2435 0 24.3131 1.68571 27.3137 4.68629C30.3143 7.68687 32 11.7565 32 16C32 20.2435 30.3143 24.3131 27.3137 27.3137C24.3131 30.3143 20.2435 32 16 32ZM19.2 11.2C19.2 11.648 18.864 12.48 18.528 12.8L16 15.328C15.088 16.256 14.4 17.888 14.4 19.2C14.4 20.0837 15.1163 20.8 16 20.8C16.8837 20.8 17.6 20.0837 17.6 19.2C17.6 18.736 17.936 17.92 18.272 17.6L20.8 15.072C21.712 14.144 22.4 12.512 22.4 11.2C22.4 9.50261 21.7257 7.87475 20.5255 6.67452C19.3253 5.47428 17.6974 4.8 16 4.8C14.3026 4.8 12.6747 5.47428 11.4745 6.67452C10.6551 7.49388 10.0809 8.51255 9.79895 9.61657C9.5803 10.4727 10.3163 11.2 11.2 11.2C12.0837 11.2 12.7681 10.4413 13.1917 9.66581C13.3367 9.40054 13.5197 9.15485 13.7373 8.93726C14.3374 8.33714 15.1513 8 16 8C16.8487 8 17.6626 8.33714 18.2627 8.93726C18.8629 9.53737 19.2 10.3513 19.2 11.2ZM16 24C15.1163 24 14.4 24.7163 14.4 25.6C14.4 26.4837 15.1163 27.2 16 27.2C16.8837 27.2 17.6 26.4837 17.6 25.6C17.6 24.7163 16.8837 24 16 24Z"
                fill="#FFF8F1" />
        </g>
        <defs>
            <clipPath id="clip0_685_1499">
                <rect width="32" height="32" fill="white" />
            </clipPath>
        </defs>
    </symbol>

</svg>